<?xml version="1.0" encoding="UTF-8" standalone="no"?>
<!DOCTYPE svg PUBLIC "-//W3C//DTD SVG 1.1//EN" "http://www.w3.org/Graphics/SVG/1.1/DTD/svg11.dtd">
<!-- Generated by graphviz version 12.1.2 (20240928.0832)
 -->
<!-- Title: graphname Pages: 1 -->
<svg width="382pt" height="337pt" viewBox="0.00 0.00 381.77 337.00" xmlns="http://www.w3.org/2000/svg"
    xmlns:xlink="http://www.w3.org/1999/xlink">
    <g id="graph0" class="graph" transform="scale(1 1) rotate(0) translate(4 333)">
        <title>graphname</title>
        <polygon fill="white" stroke="none" points="-4,4 -4,-333 377.77,-333 377.77,4 -4,4" />
        <!-- src\index.ts -->
        <g id="node1" class="node">
            <title>src\index.ts</title>
            <polygon fill="orange" stroke="black"
                points="60.9,-292.5 60.9,-328.5 135.4,-328.5 135.4,-292.5 60.9,-292.5" />
            <text text-anchor="middle" x="98.15" y="-305.45" font-family="Times New Roman,serif"
                font-size="14.00">src\index.ts</text>
        </g>
        <!-- src\App.tsx -->
        <g id="node2" class="node">
            <title>src\App.tsx</title>
            <polygon fill="none" stroke="black"
                points="60.9,-219.5 60.9,-255.5 135.4,-255.5 135.4,-219.5 60.9,-219.5" />
            <text text-anchor="middle" x="98.15" y="-232.45" font-family="Times New Roman,serif"
                font-size="14.00">src\App.tsx</text>
        </g>
        <!-- src\index.ts&#45;&gt;src\App.tsx -->
        <g id="edge1" class="edge">
            <title>src\index.ts&#45;&gt;src\App.tsx</title>
            <path fill="none" stroke="orange" d="M98.15,-292.31C98.15,-284.73 98.15,-275.6 98.15,-267.04" />
            <polygon fill="orange" stroke="orange" points="101.65,-267.04 98.15,-257.04 94.65,-267.04 101.65,-267.04" />
        </g>
        <!-- src\Minesweeper.tsx -->
        <g id="node3" class="node">
            <title>src\Minesweeper.tsx</title>
            <polygon fill="none" stroke="black"
                points="36.15,-146.5 36.15,-182.5 160.15,-182.5 160.15,-146.5 36.15,-146.5" />
            <text text-anchor="middle" x="98.15" y="-159.45" font-family="Times New Roman,serif"
                font-size="14.00">src\Minesweeper.tsx</text>
        </g>
        <!-- src\App.tsx&#45;&gt;src\Minesweeper.tsx -->
        <g id="edge2" class="edge">
            <title>src\App.tsx&#45;&gt;src\Minesweeper.tsx</title>
            <path fill="none" stroke="#f58e23" d="M98.15,-219.31C98.15,-211.73 98.15,-202.6 98.15,-194.04" />
            <polygon fill="#f58e23" stroke="#f58e23"
                points="101.65,-194.04 98.15,-184.04 94.65,-194.04 101.65,-194.04" />
        </g>
        <!-- src\hooks\useBombMap.tsx -->
        <g id="node4" class="node">
            <title>src\hooks\useBombMap.tsx</title>
            <polygon fill="none" stroke="black"
                points="198.77,-73.5 198.77,-109.5 359.52,-109.5 359.52,-73.5 198.77,-73.5" />
            <text text-anchor="middle" x="279.15" y="-86.45" font-family="Times New Roman,serif"
                font-size="14.00">src\hooks\useBombMap.tsx</text>
        </g>
        <!-- src\Minesweeper.tsx&#45;&gt;src\hooks\useBombMap.tsx -->
        <g id="edge3" class="edge">
            <title>src\Minesweeper.tsx&#45;&gt;src\hooks\useBombMap.tsx</title>
            <path fill="none" stroke="#aa8f82" d="M142.43,-146.13C167.08,-136.46 197.99,-124.34 224.17,-114.06" />
            <polygon fill="#aa8f82" stroke="#aa8f82"
                points="225.26,-117.4 233.29,-110.49 222.71,-110.88 225.26,-117.4" />
        </g>
        <!-- src\enums\Outcome.ts -->
        <g id="node5" class="node">
            <title>src\enums\Outcome.ts</title>
            <polygon fill="none" stroke="black" points="32.77,-0.5 32.77,-36.5 163.52,-36.5 163.52,-0.5 32.77,-0.5" />
            <text text-anchor="middle" x="98.15" y="-13.45" font-family="Times New Roman,serif"
                font-size="14.00">src\enums\Outcome.ts</text>
        </g>
        <!-- src\Minesweeper.tsx&#45;&gt;src\enums\Outcome.ts -->
        <g id="edge4" class="edge">
            <title>src\Minesweeper.tsx&#45;&gt;src\enums\Outcome.ts</title>
            <path fill="none" stroke="#aa8f82"
                d="M48.05,-146.2C31.74,-137.92 15.46,-126.18 6.15,-110 -2.05,-95.75 -2.05,-87.25 6.15,-73 13.57,-60.11 25.41,-50.04 38.17,-42.28" />
            <polygon fill="#aa8f82" stroke="#aa8f82" points="39.68,-45.45 46.72,-37.53 36.28,-39.33 39.68,-45.45" />
        </g>
        <!-- src\Gameboard.tsx -->
        <g id="node6" class="node">
            <title>src\Gameboard.tsx</title>
            <polygon fill="none" stroke="black"
                points="15.15,-73.5 15.15,-109.5 181.15,-109.5 181.15,-73.5 15.15,-73.5" />
            <text text-anchor="middle" x="98.15" y="-86.45" font-family="Times New Roman,serif"
                font-size="14.00">src\Gameboard.tsx</text>
        </g>
        <!-- src\Minesweeper.tsx&#45;&gt;src\Gameboard.tsx -->
        <g id="edge5" class="edge">
            <title>src\Minesweeper.tsx&#45;&gt;src\Gameboard.tsx</title>
            <path fill="none" stroke="#aa8f82" d="M98.15,-146.31C98.15,-138.73 98.15,-129.6 98.15,-121.04" />
            <polygon fill="#aa8f82" stroke="#aa8f82"
                points="101.65,-121.04 98.15,-111.04 94.65,-121.04 101.65,-121.04" />
        </g>
        <!-- src\hooks\useBombMap.tsx&#45;&gt;src\enums\Outcome.ts -->
        <g id="edge7" class="edge">
            <title>src\hooks\useBombMap.tsx&#45;&gt;src\enums\Outcome.ts</title>
            <path fill="none" stroke="#405fd4" d="M234.87,-73.13C210.22,-63.46 179.31,-51.34 153.13,-41.06" />
            <polygon fill="#405fd4" stroke="#405fd4" points="154.59,-37.88 144.01,-37.49 152.04,-44.4 154.59,-37.88" />
        </g>
        <!-- src\hooks\buildNewBombMap.ts -->
        <g id="node7" class="node">
            <title>src\hooks\buildNewBombMap.ts</title>
            <polygon fill="none" stroke="black"
                points="184.52,-0.5 184.52,-36.5 373.77,-36.5 373.77,-0.5 184.52,-0.5" />
            <text text-anchor="middle" x="279.15" y="-13.45" font-family="Times New Roman,serif"
                font-size="14.00">src\hooks\buildNewBombMap.ts</text>
        </g>
        <!-- src\hooks\useBombMap.tsx&#45;&gt;src\hooks\buildNewBombMap.ts -->
        <g id="edge6" class="edge">
            <title>src\hooks\useBombMap.tsx&#45;&gt;src\hooks\buildNewBombMap.ts</title>
            <path fill="none" stroke="#405fd4" d="M279.15,-73.31C279.15,-65.73 279.15,-56.6 279.15,-48.04" />
            <polygon fill="#405fd4" stroke="#405fd4" points="282.65,-48.04 279.15,-38.04 275.65,-48.04 282.65,-48.04" />
        </g>
        <!-- src\Gameboard.tsx&#45;&gt;src\enums\Outcome.ts -->
        <g id="edge8" class="edge">
            <title>src\Gameboard.tsx&#45;&gt;src\enums\Outcome.ts</title>
            <path fill="none" stroke="#4218dc" d="M98.15,-73.31C98.15,-65.73 98.15,-56.6 98.15,-48.04" />
            <polygon fill="#4218dc" stroke="#4218dc" points="101.65,-48.04 98.15,-38.04 94.65,-48.04 101.65,-48.04" />
        </g>
    </g>
</svg>